<?xml version="1.0" standalone="no"?>
<!DOCTYPE svg PUBLIC "-//W3C//DTD SVG 20010904//EN"
 "http://www.w3.org/TR/2001/REC-SVG-20010904/DTD/svg10.dtd">
<svg version="1.0" xmlns="http://www.w3.org/2000/svg"
 width="700.000000pt" height="700.000000pt" viewBox="0 0 700.000000 700.000000"
 preserveAspectRatio="xMidYMid meet">
<metadata>
Created by potrace 1.14, written by Peter Selinger 2001-2017
</metadata>
<g transform="translate(0.000000,700.000000) scale(0.100000,-0.100000)"
fill="#000000" stroke="none">
<path d="M0 3500 l0 -3500 3500 0 3500 0 0 3500 0 3500 -3500 0 -3500 0 0
-3500z m2467 1935 c442 -58 786 -233 947 -483 89 -137 132 -283 143 -479 l6
-123 -251 0 -252 0 0 58 c0 303 -211 507 -603 583 -252 49 -615 29 -845 -48
-113 -37 -208 -90 -269 -150 -116 -112 -152 -289 -92 -450 27 -72 109 -158
211 -224 152 -97 264 -137 775 -273 656 -175 875 -257 1062 -396 96 -72 227
-209 268 -280 79 -139 113 -325 94 -527 -25 -280 -100 -452 -266 -618 -234
-234 -571 -355 -1073 -387 -650 -42 -1227 131 -1494 447 -72 84 -150 238 -177
350 -26 102 -42 278 -34 356 l6 59 248 0 248 0 0 -108 c-1 -187 45 -307 162
-423 107 -106 282 -185 495 -224 49 -9 172 -19 274 -22 665 -20 1060 174 1099
540 32 298 -148 496 -579 637 -110 36 -184 57 -690 194 -403 108 -609 187
-766 291 -287 191 -404 403 -404 729 0 180 35 324 111 453 52 88 208 239 309
297 206 121 466 200 750 229 106 11 479 6 587 -8z m3743 -1432 c0 -946 -4
-1417 -11 -1478 -26 -214 -113 -435 -223 -566 -190 -228 -516 -346 -897 -325
-436 23 -729 196 -878 518 -71 153 -101 312 -101 534 l0 134 254 0 253 0 6
-162 c7 -238 42 -345 146 -449 95 -94 220 -139 391 -139 278 0 446 128 523
398 l22 77 3 1423 2 1422 255 0 255 0 0 -1387z"/>
</g>
</svg>
